<?xml version="1.0" encoding="UTF-8" standalone="no"?>
<!-- Created with Inkscape (http://www.inkscape.org/) -->

<svg
   width="100mm"
   height="100mm"
   viewBox="0 0 100 100"
   version="1.1"
   id="svg1"
   inkscape:version="1.3 (0e150ed6c4, 2023-07-21)"
   sodipodi:docname="turbotickets_square_primary.svg"
   xmlns:inkscape="http://www.inkscape.org/namespaces/inkscape"
   xmlns:sodipodi="http://sodipodi.sourceforge.net/DTD/sodipodi-0.dtd"
   xmlns="http://www.w3.org/2000/svg"
   xmlns:svg="http://www.w3.org/2000/svg">
  <sodipodi:namedview
     id="namedview1"
     pagecolor="#ffffff"
     bordercolor="#000000"
     borderopacity="0.25"
     inkscape:showpageshadow="2"
     inkscape:pageopacity="0.0"
     inkscape:pagecheckerboard="0"
     inkscape:deskcolor="#d1d1d1"
     inkscape:document-units="mm"
     showguides="true"
     inkscape:zoom="1.0306873"
     inkscape:cx="473.95558"
     inkscape:cy="97.50775"
     inkscape:window-width="1680"
     inkscape:window-height="987"
     inkscape:window-x="1912"
     inkscape:window-y="-8"
     inkscape:window-maximized="1"
     inkscape:current-layer="layer1" />
  <defs
     id="defs1">
    <clipPath
       id="2dc671a0e1">
      <path
         d="M 111.39453,83.761719 H 233 V 229.26172 H 111.39453 Z m 0,0"
         clip-rule="nonzero"
         id="path1" />
    </clipPath>
    <clipPath
       id="46d6414d43">
      <path
         d="m 227.33594,141.55078 h 15.70703 v 15.71094 h -15.70703 z m 0,0"
         clip-rule="nonzero"
         id="path4" />
    </clipPath>
    <clipPath
       id="661dd1cc87">
      <path
         d="m 235.1875,141.55078 c -4.33594,0 -7.85156,3.51563 -7.85156,7.85547 0,4.33594 3.51562,7.85547 7.85156,7.85547 4.33984,0 7.85547,-3.51953 7.85547,-7.85547 0,-4.33984 -3.51563,-7.85547 -7.85547,-7.85547 z m 0,0"
         clip-rule="nonzero"
         id="path5" />
    </clipPath>
    <clipPath
       id="8ad67fc17c">
      <path
         d="m 225.58203,159.46875 h 19.21484 v 43.86719 h -19.21484 z m 0,0"
         clip-rule="nonzero"
         id="path6" />
    </clipPath>
    <clipPath
       id="c875c8ea50">
      <path
         d="m 235.1875,159.46875 c 2.55078,0 4.99219,1.01562 6.79687,2.81641 1.80079,1.80078 2.8125,4.24609 2.8125,6.79296 v 24.64844 c 0,2.55078 -1.01171,4.99219 -2.8125,6.79688 -1.80468,1.80078 -4.24609,2.8125 -6.79687,2.8125 -2.54688,0 -4.99219,-1.01172 -6.79297,-2.8125 -1.80078,-1.80469 -2.8125,-4.2461 -2.8125,-6.79688 v -24.64844 c 0,-2.54687 1.01172,-4.99218 2.8125,-6.79296 1.80078,-1.80079 4.24609,-2.81641 6.79297,-2.81641 z m 0,0"
         clip-rule="nonzero"
         id="path7" />
    </clipPath>
    <clipPath
       id="ed8a602720">
      <path
         d="m 250.60156,149.44141 h 11.69922 v 11.69531 h -11.69922 z m 0,0"
         clip-rule="nonzero"
         id="path8" />
    </clipPath>
    <clipPath
       id="602431b268">
      <path
         d="m 256.45312,149.44141 c -3.23046,0 -5.85156,2.61718 -5.85156,5.84765 0,3.23047 2.6211,5.84766 5.85156,5.84766 3.23047,0 5.84766,-2.61719 5.84766,-5.84766 0,-3.23047 -2.61719,-5.84765 -5.84766,-5.84765 z m 0,0"
         clip-rule="nonzero"
         id="path9" />
    </clipPath>
    <clipPath
       id="c91545a94b">
      <path
         d="m 249.29687,162.78516 h 14.3086 v 32.66015 h -14.3086 z m 0,0"
         clip-rule="nonzero"
         id="path10" />
    </clipPath>
    <clipPath
       id="e872f0d415">
      <path
         d="m 256.45312,162.78516 c 1.89454,0 3.71485,0.7539 5.0586,2.09375 1.33984,1.34375 2.09375,3.16015 2.09375,5.05859 v 18.35547 c 0,1.89844 -0.75391,3.71484 -2.09375,5.05859 -1.34375,1.33985 -3.16406,2.09375 -5.0586,2.09375 -1.89843,0 -3.71875,-0.7539 -5.05859,-2.09375 -1.34375,-1.34375 -2.09766,-3.16015 -2.09766,-5.05859 V 169.9375 c 0,-1.89844 0.75391,-3.71484 2.09766,-5.05859 1.33984,-1.33985 3.16016,-2.09375 5.05859,-2.09375 z m 0,0"
         clip-rule="nonzero"
         id="path11" />
    </clipPath>
    <clipPath
       id="2221466f44">
      <path
         d="m 207.83203,149.44141 h 11.69531 v 11.69531 h -11.69531 z m 0,0"
         clip-rule="nonzero"
         id="path12" />
    </clipPath>
    <clipPath
       id="ca871fd6e3">
      <path
         d="m 213.67969,149.44141 c -3.23047,0 -5.84766,2.61718 -5.84766,5.84765 0,3.23047 2.61719,5.84766 5.84766,5.84766 3.23047,0 5.84765,-2.61719 5.84765,-5.84766 0,-3.23047 -2.61718,-5.84765 -5.84765,-5.84765 z m 0,0"
         clip-rule="nonzero"
         id="path13" />
    </clipPath>
    <clipPath
       id="038140afd0">
      <path
         d="m 206.52344,162.78516 h 14.30859 v 32.66015 h -14.30859 z m 0,0"
         clip-rule="nonzero"
         id="path14" />
    </clipPath>
    <clipPath
       id="e47a094e3d">
      <path
         d="m 213.67969,162.78516 c 1.89843,0 3.71484,0.7539 5.05859,2.09375 1.33984,1.34375 2.09375,3.16015 2.09375,5.05859 v 18.35547 c 0,1.89844 -0.75391,3.71484 -2.09375,5.05859 -1.34375,1.33985 -3.16016,2.09375 -5.05859,2.09375 -1.89844,0 -3.71875,-0.7539 -5.0586,-2.09375 -1.34375,-1.34375 -2.09765,-3.16015 -2.09765,-5.05859 V 169.9375 c 0,-1.89844 0.7539,-3.71484 2.09765,-5.05859 1.33985,-1.33985 3.16016,-2.09375 5.0586,-2.09375 z m 0,0"
         clip-rule="nonzero"
         id="path15" />
    </clipPath>
  </defs>
  <g
     inkscape:label="Layer 1"
     inkscape:groupmode="layer"
     id="layer1">
    <g
       id="g70"
       transform="matrix(0.64058576,0,0,0.64058576,-70.10983,-50.176595)"
       style="fill:#5066e1;fill-opacity:1">
      <g
         clip-path="url(#2dc671a0e1)"
         id="g16"
         style="fill:#5066e1;fill-opacity:1">
        <path
           fill="#89abe3"
           d="m 208.33594,217.64453 c -4.23438,-2.17969 -8.25,-4.92187 -11.92969,-8.24609 l 4.87891,-8.96094 c -0.0117,-0.008 -0.0234,-0.0195 -0.0352,-0.0312 -2.22266,-2.22266 -4.16797,-4.61719 -5.84766,-7.13672 l -10.21875,2.21094 c -2.375,-4.15625 -4.17968,-8.55078 -5.40625,-13.06641 l 8.96094,-4.91015 c -0.73047,-3.34766 -1.09375,-6.76172 -1.07422,-10.17579 l -9.73047,-3.64062 c 0.32032,-4.60938 1.20313,-9.17969 2.65235,-13.61328 l 10.22265,0.72265 c 1.29297,-3.33203 2.98047,-6.53906 5.07032,-9.55859 l -6.16797,-8.26172 c 1.39843,-1.78906 2.91797,-3.51172 4.5664,-5.16015 1.64844,-1.64844 3.3711,-3.16797 5.16016,-4.56641 l 8.26172,6.16797 c 3.01953,-2.08984 6.22656,-3.77734 9.55859,-5.07031 L 216.53516,114.125 c 3.60937,-1.17969 7.3164,-1.97656 11.05468,-2.41016 l 4.57422,-10.03906 C 227.64453,97.742188 222.64062,94.359375 217.24609,91.625 l -8.71484,10.03516 c -4.23828,-1.871098 -8.73438,-3.261722 -13.41797,-4.113285 l -1.91797,-13.242187 c -2.92578,-0.355469 -5.90234,-0.542969 -8.92578,-0.542969 -3.01953,0 -5.99609,0.1875 -8.92187,0.542969 l -1.91797,13.242187 c -4.6836,0.851563 -9.17969,2.242187 -13.41797,4.113285 L 151.29687,91.625 c -5.39062,2.734375 -10.39843,6.117188 -14.91406,10.05078 l 5.58203,12.26563 c -3.14843,3.11328 -5.94922,6.57422 -8.35156,10.3164 l -12.72265,-3.71484 c -3.01563,5.26953 -5.39063,10.95312 -7.02735,16.94531 l 11.40235,7.34766 c -0.77344,3.84765 -1.1836,7.82812 -1.1836,11.90625 0,0.0234 0.004,0.043 0.004,0.0625 l -12.69531,3.74218 c 0.32812,6.42579 1.49609,12.625 3.3789,18.50391 l 13.60938,0.0156 c 1.33203,3.33203 2.94531,6.51562 4.82421,9.51953 l -8.68749,10.05078 c 3.69921,5.26953 8.07812,10.02734 13.01171,14.14453 l 11.41797,-7.32031 c 2.59766,1.88672 5.35156,3.5664 8.23828,5.02343 l -1.89062,13.25391 c 5.88281,2.54688 12.16406,4.33984 18.72656,5.26563 l 5.61719,-12.26954 c 1.53125,0.11719 3.07422,0.19532 4.63281,0.19532 1.5625,0 3.10547,-0.0781 4.63672,-0.19532 l 5.61719,12.26954 c 6.5625,-0.92579 12.84375,-2.71875 18.72656,-5.26563 l -1.375,-9.62891 -3.53906,3.53516"
           fill-opacity="1"
           fill-rule="nonzero"
           id="path16"
           style="fill:#5066e1;fill-opacity:1" />
      </g>
      <g
         clip-path="url(#46d6414d43)"
         id="g21"
         style="fill:#5066e1;fill-opacity:1">
        <g
           clip-path="url(#661dd1cc87)"
           id="g20"
           style="fill:#5066e1;fill-opacity:1">
          <path
             fill="#89abe3"
             d="m 227.33594,141.55078 h 15.70703 v 15.71094 h -15.70703 z m 0,0"
             fill-opacity="1"
             fill-rule="nonzero"
             id="path19"
             style="fill:#5066e1;fill-opacity:1" />
        </g>
      </g>
      <g
         clip-path="url(#8ad67fc17c)"
         id="g23"
         style="fill:#5066e1;fill-opacity:1">
        <g
           clip-path="url(#c875c8ea50)"
           id="g22"
           style="fill:#5066e1;fill-opacity:1">
          <path
             fill="#89abe3"
             d="m 225.58203,159.46875 h 19.21484 v 43.86719 h -19.21484 z m 0,0"
             fill-opacity="1"
             fill-rule="nonzero"
             id="path21"
             style="fill:#5066e1;fill-opacity:1" />
        </g>
      </g>
      <g
         clip-path="url(#ed8a602720)"
         id="g25"
         style="fill:#5066e1;fill-opacity:1">
        <g
           clip-path="url(#602431b268)"
           id="g24"
           style="fill:#5066e1;fill-opacity:1">
          <path
             fill="#89abe3"
             d="m 250.60156,149.44141 h 11.69922 v 11.69531 h -11.69922 z m 0,0"
             fill-opacity="1"
             fill-rule="nonzero"
             id="path23"
             style="fill:#5066e1;fill-opacity:1" />
        </g>
      </g>
      <g
         clip-path="url(#c91545a94b)"
         id="g27"
         style="fill:#5066e1;fill-opacity:1">
        <g
           clip-path="url(#e872f0d415)"
           id="g26"
           style="fill:#5066e1;fill-opacity:1">
          <path
             fill="#89abe3"
             d="m 249.29687,162.78516 h 14.3086 v 32.66015 h -14.3086 z m 0,0"
             fill-opacity="1"
             fill-rule="nonzero"
             id="path25"
             style="fill:#5066e1;fill-opacity:1" />
        </g>
      </g>
      <g
         clip-path="url(#2221466f44)"
         id="g29"
         style="fill:#5066e1;fill-opacity:1">
        <g
           clip-path="url(#ca871fd6e3)"
           id="g28"
           style="fill:#5066e1;fill-opacity:1">
          <path
             fill="#89abe3"
             d="m 207.83203,149.44141 h 11.69531 v 11.69531 h -11.69531 z m 0,0"
             fill-opacity="1"
             fill-rule="nonzero"
             id="path27"
             style="fill:#5066e1;fill-opacity:1" />
        </g>
      </g>
      <g
         clip-path="url(#038140afd0)"
         id="g31"
         style="fill:#5066e1;fill-opacity:1">
        <g
           clip-path="url(#e47a094e3d)"
           id="g30"
           style="fill:#5066e1;fill-opacity:1">
          <path
             fill="#89abe3"
             d="m 206.52344,162.78516 h 14.30859 v 32.66015 h -14.30859 z m 0,0"
             fill-opacity="1"
             fill-rule="nonzero"
             id="path29"
             style="fill:#5066e1;fill-opacity:1" />
        </g>
      </g>
    </g>
  </g>
</svg>
