<?xml version="1.0" encoding="UTF-8" standalone="no"?>
<!-- Created with Inkscape (http://www.inkscape.org/) -->

<svg
   width="750mm"
   height="250mm"
   viewBox="0 0 750 250"
   version="1.1"
   id="svg1"
   inkscape:version="1.3 (0e150ed6c4, 2023-07-21)"
   sodipodi:docname="turboTicketsWhiteSVG.svg"
   xmlns:inkscape="http://www.inkscape.org/namespaces/inkscape"
   xmlns:sodipodi="http://sodipodi.sourceforge.net/DTD/sodipodi-0.dtd"
   xmlns="http://www.w3.org/2000/svg"
   xmlns:svg="http://www.w3.org/2000/svg">
  <sodipodi:namedview
     id="namedview1"
     pagecolor="#ffffff"
     bordercolor="#000000"
     borderopacity="0.25"
     inkscape:showpageshadow="2"
     inkscape:pageopacity="0.0"
     inkscape:pagecheckerboard="0"
     inkscape:deskcolor="#d1d1d1"
     inkscape:document-units="mm"
     inkscape:zoom="0.16"
     inkscape:cx="2962.5"
     inkscape:cy="-428.125"
     inkscape:window-width="1680"
     inkscape:window-height="987"
     inkscape:window-x="1912"
     inkscape:window-y="-8"
     inkscape:window-maximized="1"
     inkscape:current-layer="layer1" />
  <defs
     id="defs1">
    <clipPath
       id="2dc671a0e1">
      <path
         d="M 111.39453,83.761719 H 233 V 229.26172 H 111.39453 Z m 0,0"
         clip-rule="nonzero"
         id="path1" />
    </clipPath>
    <clipPath
       id="46d6414d43">
      <path
         d="m 227.33594,141.55078 h 15.70703 v 15.71094 h -15.70703 z m 0,0"
         clip-rule="nonzero"
         id="path4" />
    </clipPath>
    <clipPath
       id="661dd1cc87">
      <path
         d="m 235.1875,141.55078 c -4.33594,0 -7.85156,3.51563 -7.85156,7.85547 0,4.33594 3.51562,7.85547 7.85156,7.85547 4.33984,0 7.85547,-3.51953 7.85547,-7.85547 0,-4.33984 -3.51563,-7.85547 -7.85547,-7.85547 z m 0,0"
         clip-rule="nonzero"
         id="path5" />
    </clipPath>
    <clipPath
       id="8ad67fc17c">
      <path
         d="m 225.58203,159.46875 h 19.21484 v 43.86719 h -19.21484 z m 0,0"
         clip-rule="nonzero"
         id="path6" />
    </clipPath>
    <clipPath
       id="c875c8ea50">
      <path
         d="m 235.1875,159.46875 c 2.55078,0 4.99219,1.01562 6.79687,2.81641 1.80079,1.80078 2.8125,4.24609 2.8125,6.79296 v 24.64844 c 0,2.55078 -1.01171,4.99219 -2.8125,6.79688 -1.80468,1.80078 -4.24609,2.8125 -6.79687,2.8125 -2.54688,0 -4.99219,-1.01172 -6.79297,-2.8125 -1.80078,-1.80469 -2.8125,-4.2461 -2.8125,-6.79688 v -24.64844 c 0,-2.54687 1.01172,-4.99218 2.8125,-6.79296 1.80078,-1.80079 4.24609,-2.81641 6.79297,-2.81641 z m 0,0"
         clip-rule="nonzero"
         id="path7" />
    </clipPath>
    <clipPath
       id="ed8a602720">
      <path
         d="m 250.60156,149.44141 h 11.69922 v 11.69531 h -11.69922 z m 0,0"
         clip-rule="nonzero"
         id="path8" />
    </clipPath>
    <clipPath
       id="602431b268">
      <path
         d="m 256.45312,149.44141 c -3.23046,0 -5.85156,2.61718 -5.85156,5.84765 0,3.23047 2.6211,5.84766 5.85156,5.84766 3.23047,0 5.84766,-2.61719 5.84766,-5.84766 0,-3.23047 -2.61719,-5.84765 -5.84766,-5.84765 z m 0,0"
         clip-rule="nonzero"
         id="path9" />
    </clipPath>
    <clipPath
       id="c91545a94b">
      <path
         d="m 249.29687,162.78516 h 14.3086 v 32.66015 h -14.3086 z m 0,0"
         clip-rule="nonzero"
         id="path10" />
    </clipPath>
    <clipPath
       id="e872f0d415">
      <path
         d="m 256.45312,162.78516 c 1.89454,0 3.71485,0.7539 5.0586,2.09375 1.33984,1.34375 2.09375,3.16015 2.09375,5.05859 v 18.35547 c 0,1.89844 -0.75391,3.71484 -2.09375,5.05859 -1.34375,1.33985 -3.16406,2.09375 -5.0586,2.09375 -1.89843,0 -3.71875,-0.7539 -5.05859,-2.09375 -1.34375,-1.34375 -2.09766,-3.16015 -2.09766,-5.05859 V 169.9375 c 0,-1.89844 0.75391,-3.71484 2.09766,-5.05859 1.33984,-1.33985 3.16016,-2.09375 5.05859,-2.09375 z m 0,0"
         clip-rule="nonzero"
         id="path11" />
    </clipPath>
    <clipPath
       id="2221466f44">
      <path
         d="m 207.83203,149.44141 h 11.69531 v 11.69531 h -11.69531 z m 0,0"
         clip-rule="nonzero"
         id="path12" />
    </clipPath>
    <clipPath
       id="ca871fd6e3">
      <path
         d="m 213.67969,149.44141 c -3.23047,0 -5.84766,2.61718 -5.84766,5.84765 0,3.23047 2.61719,5.84766 5.84766,5.84766 3.23047,0 5.84765,-2.61719 5.84765,-5.84766 0,-3.23047 -2.61718,-5.84765 -5.84765,-5.84765 z m 0,0"
         clip-rule="nonzero"
         id="path13" />
    </clipPath>
    <clipPath
       id="038140afd0">
      <path
         d="m 206.52344,162.78516 h 14.30859 v 32.66015 h -14.30859 z m 0,0"
         clip-rule="nonzero"
         id="path14" />
    </clipPath>
    <clipPath
       id="e47a094e3d">
      <path
         d="m 213.67969,162.78516 c 1.89843,0 3.71484,0.7539 5.05859,2.09375 1.33984,1.34375 2.09375,3.16015 2.09375,5.05859 v 18.35547 c 0,1.89844 -0.75391,3.71484 -2.09375,5.05859 -1.34375,1.33985 -3.16016,2.09375 -5.05859,2.09375 -1.89844,0 -3.71875,-0.7539 -5.0586,-2.09375 -1.34375,-1.34375 -2.09765,-3.16015 -2.09765,-5.05859 V 169.9375 c 0,-1.89844 0.7539,-3.71484 2.09765,-5.05859 1.33985,-1.33985 3.16016,-2.09375 5.0586,-2.09375 z m 0,0"
         clip-rule="nonzero"
         id="path15" />
    </clipPath>
  </defs>
  <g
     inkscape:label="Layer 1"
     inkscape:groupmode="layer"
     id="layer1">
    <g
       id="g70"
       transform="matrix(1.7042422,0,0,1.7042422,-189.84326,-141.51417)"
       style="fill:#ffffff">
      <g
         clip-path="url(#2dc671a0e1)"
         id="g16"
         style="fill:#ffffff">
        <path
           fill="#89abe3"
           d="m 208.33594,217.64453 c -4.23438,-2.17969 -8.25,-4.92187 -11.92969,-8.24609 l 4.87891,-8.96094 c -0.0117,-0.008 -0.0234,-0.0195 -0.0352,-0.0312 -2.22266,-2.22266 -4.16797,-4.61719 -5.84766,-7.13672 l -10.21875,2.21094 c -2.375,-4.15625 -4.17968,-8.55078 -5.40625,-13.06641 l 8.96094,-4.91015 c -0.73047,-3.34766 -1.09375,-6.76172 -1.07422,-10.17579 l -9.73047,-3.64062 c 0.32032,-4.60938 1.20313,-9.17969 2.65235,-13.61328 l 10.22265,0.72265 c 1.29297,-3.33203 2.98047,-6.53906 5.07032,-9.55859 l -6.16797,-8.26172 c 1.39843,-1.78906 2.91797,-3.51172 4.5664,-5.16015 1.64844,-1.64844 3.3711,-3.16797 5.16016,-4.56641 l 8.26172,6.16797 c 3.01953,-2.08984 6.22656,-3.77734 9.55859,-5.07031 L 216.53516,114.125 c 3.60937,-1.17969 7.3164,-1.97656 11.05468,-2.41016 l 4.57422,-10.03906 C 227.64453,97.742188 222.64062,94.359375 217.24609,91.625 l -8.71484,10.03516 c -4.23828,-1.871098 -8.73438,-3.261722 -13.41797,-4.113285 l -1.91797,-13.242187 c -2.92578,-0.355469 -5.90234,-0.542969 -8.92578,-0.542969 -3.01953,0 -5.99609,0.1875 -8.92187,0.542969 l -1.91797,13.242187 c -4.6836,0.851563 -9.17969,2.242187 -13.41797,4.113285 L 151.29687,91.625 c -5.39062,2.734375 -10.39843,6.117188 -14.91406,10.05078 l 5.58203,12.26563 c -3.14843,3.11328 -5.94922,6.57422 -8.35156,10.3164 l -12.72265,-3.71484 c -3.01563,5.26953 -5.39063,10.95312 -7.02735,16.94531 l 11.40235,7.34766 c -0.77344,3.84765 -1.1836,7.82812 -1.1836,11.90625 0,0.0234 0.004,0.043 0.004,0.0625 l -12.69531,3.74218 c 0.32812,6.42579 1.49609,12.625 3.3789,18.50391 l 13.60938,0.0156 c 1.33203,3.33203 2.94531,6.51562 4.82421,9.51953 l -8.68749,10.05078 c 3.69921,5.26953 8.07812,10.02734 13.01171,14.14453 l 11.41797,-7.32031 c 2.59766,1.88672 5.35156,3.5664 8.23828,5.02343 l -1.89062,13.25391 c 5.88281,2.54688 12.16406,4.33984 18.72656,5.26563 l 5.61719,-12.26954 c 1.53125,0.11719 3.07422,0.19532 4.63281,0.19532 1.5625,0 3.10547,-0.0781 4.63672,-0.19532 l 5.61719,12.26954 c 6.5625,-0.92579 12.84375,-2.71875 18.72656,-5.26563 l -1.375,-9.62891 -3.53906,3.53516"
           fill-opacity="1"
           fill-rule="nonzero"
           id="path16"
           style="fill:#ffffff" />
      </g>
      <g
         clip-path="url(#46d6414d43)"
         id="g21"
         style="fill:#ffffff">
        <g
           clip-path="url(#661dd1cc87)"
           id="g20"
           style="fill:#ffffff">
          <path
             fill="#89abe3"
             d="m 227.33594,141.55078 h 15.70703 v 15.71094 h -15.70703 z m 0,0"
             fill-opacity="1"
             fill-rule="nonzero"
             id="path19"
             style="fill:#ffffff" />
        </g>
      </g>
      <g
         clip-path="url(#8ad67fc17c)"
         id="g23"
         style="fill:#ffffff">
        <g
           clip-path="url(#c875c8ea50)"
           id="g22"
           style="fill:#ffffff">
          <path
             fill="#89abe3"
             d="m 225.58203,159.46875 h 19.21484 v 43.86719 h -19.21484 z m 0,0"
             fill-opacity="1"
             fill-rule="nonzero"
             id="path21"
             style="fill:#ffffff" />
        </g>
      </g>
      <g
         clip-path="url(#ed8a602720)"
         id="g25"
         style="fill:#ffffff">
        <g
           clip-path="url(#602431b268)"
           id="g24"
           style="fill:#ffffff">
          <path
             fill="#89abe3"
             d="m 250.60156,149.44141 h 11.69922 v 11.69531 h -11.69922 z m 0,0"
             fill-opacity="1"
             fill-rule="nonzero"
             id="path23"
             style="fill:#ffffff" />
        </g>
      </g>
      <g
         clip-path="url(#c91545a94b)"
         id="g27"
         style="fill:#ffffff">
        <g
           clip-path="url(#e872f0d415)"
           id="g26"
           style="fill:#ffffff">
          <path
             fill="#89abe3"
             d="m 249.29687,162.78516 h 14.3086 v 32.66015 h -14.3086 z m 0,0"
             fill-opacity="1"
             fill-rule="nonzero"
             id="path25"
             style="fill:#ffffff" />
        </g>
      </g>
      <g
         clip-path="url(#2221466f44)"
         id="g29"
         style="fill:#ffffff">
        <g
           clip-path="url(#ca871fd6e3)"
           id="g28"
           style="fill:#ffffff">
          <path
             fill="#89abe3"
             d="m 207.83203,149.44141 h 11.69531 v 11.69531 h -11.69531 z m 0,0"
             fill-opacity="1"
             fill-rule="nonzero"
             id="path27"
             style="fill:#ffffff" />
        </g>
      </g>
      <g
         clip-path="url(#038140afd0)"
         id="g31"
         style="fill:#ffffff">
        <g
           clip-path="url(#e47a094e3d)"
           id="g30"
           style="fill:#ffffff">
          <path
             fill="#89abe3"
             d="m 206.52344,162.78516 h 14.30859 v 32.66015 h -14.30859 z m 0,0"
             fill-opacity="1"
             fill-rule="nonzero"
             id="path29"
             style="fill:#ffffff" />
        </g>
      </g>
    </g>
    <g
       id="g69"
       transform="matrix(4.1098841,0,0,4.1098841,4.5453792,-925.48259)"
       style="fill:#ffffff">
      <g
         id="g3"
         style="fill:#ffffff">
        <g
           id="g2"
           transform="translate(1.609433,-12.875464)"
           style="fill:#ffffff">
          <g
             fill="#89abe3"
             fill-opacity="1"
             id="g34"
             style="fill:#ffffff">
            <g
               transform="translate(79.277482,265.99952)"
               id="g33"
               style="fill:#ffffff">
              <g
                 id="g32"
                 style="fill:#ffffff">
                <path
                   d="M 8.8125,0.078125 C 8.382812,0.0234375 7.273438,0 5.484375,0 h -0.4375 V -14.953125 H 2.375 c -0.804688,0 -1.277344,0.04297 -1.421875,0.125 C 0.816406,-14.753906 0.707031,-14.6875 0.625,-14.625 l -0.046875,-0.01563 v -3.45312 L 0.625,-18.140625 c 0.289062,0.105469 1.09375,0.15625 2.40625,0.15625 h 8.484375 c 0.789063,0 1.257813,-0.03906 1.40625,-0.125 0.144531,-0.08203 0.253906,-0.15625 0.328125,-0.21875 l 0.04687,0.01563 v 3.453125 L 13.25,-14.8125 c -0.292969,-0.09375 -1.09375,-0.140625 -2.40625,-0.140625 H 8.8125 Z m 0,0"
                   id="path31"
                   style="fill:#ffffff" />
              </g>
            </g>
          </g>
          <g
             fill="#89abe3"
             fill-opacity="1"
             id="g37"
             style="fill:#ffffff">
            <g
               transform="translate(95.033794,265.99952)"
               id="g36"
               style="fill:#ffffff">
              <g
                 id="g35"
                 style="fill:#ffffff">
                <path
                   d="m 12.578125,-18.0625 c 0.5625,0.05469 1.023437,0.07813 1.390625,0.07813 h 1.125 c 0.382812,0 0.78125,-0.03516 1.1875,-0.109375 v 11.1875 c 0,2.21875 -0.671875,4 -2.015625,5.34375 -1.273437,1.273438 -2.867187,1.90625 -4.78125,1.90625 C 7.378906,0.34375 5.675781,-0.203125 4.375,-1.296875 2.925781,-2.523438 2.203125,-4.289062 2.203125,-6.59375 V -18.0625 c 0.75,0.05469 1.453125,0.07813 2.109375,0.07813 0.664062,0 1.21875,-0.03516 1.65625,-0.109375 V -6.42187 c 0,1.136719 0.34375,2.015625 1.03125,2.640625 0.65625,0.585938 1.46875,0.875 2.4375,0.875 1.445312,0 2.410156,-0.738281 2.890625,-2.21875 0.164063,-0.53125 0.25,-1.191406 0.25,-1.984375 z m 0,0"
                   id="path34"
                   style="fill:#ffffff" />
              </g>
            </g>
          </g>
          <g
             fill="#89abe3"
             fill-opacity="1"
             id="g40"
             style="fill:#ffffff">
            <g
               transform="translate(115.41435,265.99952)"
               id="g39"
               style="fill:#ffffff">
              <g
                 id="g38"
                 style="fill:#ffffff">
                <path
                   d="m 8.140625,-7 c -0.273437,0.023438 -0.5625,0.03125 -0.875,0.03125 -0.304687,0 -0.757813,-0.019531 -1.359375,-0.0625 V 0 H 2.328125 v -18.078125 c 1.257813,-0.164063 2.8125,-0.25 4.65625,-0.25 2.5,0 4.363281,0.464844 5.59375,1.390625 1.238281,0.917969 1.859375,2.34375 1.859375,4.28125 0,1.492188 -0.5625,2.773438 -1.6875,3.84375 -0.375,0.335938 -0.804688,0.632812 -1.28125,0.890625 l 2.765625,5.8125 c 0.539063,1.199219 0.953125,1.914063 1.234375,2.140625 l -0.0625,0.0625 c -0.875,-0.1445312 -2.25,-0.140625 -4.125,0.015625 z m -0.90625,-8.140625 c -0.460937,0 -0.902344,0.02734 -1.328125,0.07813 v 5.15625 c 0.445312,0.0625 0.96875,0.09375 1.5625,0.09375 0.59375,0 1.09375,-0.050781 1.5,-0.15625 0.40625,-0.101562 0.757812,-0.257812 1.0625,-0.46875 0.632812,-0.476562 0.953125,-1.195312 0.953125,-2.15625 0,-0.957031 -0.335937,-1.628906 -1,-2.015625 -0.625,-0.351563 -1.542969,-0.53125 -2.75,-0.53125 z m 0,0"
                   id="path37"
                   style="fill:#ffffff" />
              </g>
            </g>
          </g>
          <g
             fill="#89abe3"
             fill-opacity="1"
             id="g43"
             style="fill:#ffffff">
            <g
               transform="translate(133.42871,265.99952)"
               id="g42"
               style="fill:#ffffff">
              <g
                 id="g41"
                 style="fill:#ffffff">
                <path
                   d="m 13.6875,-1.3125 c -0.65625,0.523438 -1.515625,0.929688 -2.578125,1.21875 -1.054687,0.289062 -2.351563,0.4375 -3.890625,0.4375 -1.53125,0 -3.164062,-0.140625 -4.890625,-0.421875 V -17.90625 c 1.75,-0.28125 3.265625,-0.421875 4.546875,-0.421875 1.289062,0 2.347656,0.125 3.171875,0.375 0.820313,0.242187 1.492187,0.570313 2.015625,0.984375 1.03125,0.804688 1.546875,1.84375 1.546875,3.125 0,1.273438 -0.464844,2.324219 -1.390625,3.15625 1.09375,0.34375 1.941406,0.996094 2.546875,1.953125 0.550781,0.855469 0.828125,1.804687 0.828125,2.84375 0,1.042969 -0.152344,1.933594 -0.453125,2.671875 -0.304687,0.742188 -0.789063,1.375 -1.453125,1.90625 z m -7.78125,-9.875 c 0.382812,0.0625 0.859375,0.09375 1.421875,0.09375 0.570313,0 1.039063,-0.07031 1.40625,-0.21875 0.363281,-0.144531 0.644531,-0.332031 0.84375,-0.5625 0.320313,-0.375 0.484375,-0.890625 0.484375,-1.546875 0,-1.375 -0.8125,-2.0625 -2.4375,-2.0625 -0.6875,0 -1.261719,0.02734 -1.71875,0.07813 z m 2,2.890625 c -0.75,0 -1.417969,0.054687 -2,0.15625 v 5.3125 c 0.632812,0.167969 1.296875,0.25 1.984375,0.25 0.695313,0 1.3125,-0.082031 1.84375,-0.25 0.53125,-0.164063 0.972656,-0.394531 1.328125,-0.6875 0.726562,-0.59375 1.09375,-1.351563 1.09375,-2.28125 0,-1.664063 -1.417969,-2.5 -4.25,-2.5 z m 0,0"
                   id="path40"
                   style="fill:#ffffff" />
              </g>
            </g>
          </g>
          <g
             fill="#89abe3"
             fill-opacity="1"
             id="g46"
             style="fill:#ffffff">
            <g
               transform="translate(151.49715,265.99952)"
               id="g45"
               style="fill:#ffffff">
              <g
                 id="g44"
                 style="fill:#ffffff">
                <path
                   d="m 3.796875,-2.125 c -0.824219,-0.789062 -1.46875,-1.734375 -1.9375,-2.828125 -0.46875,-1.101563 -0.703125,-2.3125 -0.703125,-3.625 0,-1.3125 0.21875,-2.550781 0.65625,-3.71875 0.4375,-1.175781 1.066406,-2.210937 1.890625,-3.109375 0.820313,-0.894531 1.8125,-1.601562 2.96875,-2.125 1.164063,-0.53125 2.472656,-0.796875 3.921875,-0.796875 2.488281,0 4.582031,0.789063 6.28125,2.359375 1.820312,1.679688 2.734375,3.9375 2.734375,6.78125 0,2.761719 -0.9375,5.058594 -2.8125,6.890625 -1.15625,1.125 -2.53125,1.902344 -4.125,2.328125 -0.78125,0.207031 -1.699219,0.3125 -2.75,0.3125 C 8.867188,0.34375 7.789062,0.128906 6.6875,-0.296875 5.582031,-0.734375 4.617188,-1.34375 3.796875,-2.125 Z M 4.90625,-8.765625 c 0,0.84375 0.140625,1.621094 0.421875,2.328125 C 5.609375,-5.738281 6,-5.140625 6.5,-4.640625 c 1.050781,1.0625 2.40625,1.59375 4.0625,1.59375 1.582031,0 2.847656,-0.507813 3.796875,-1.53125 0.976563,-1.050781 1.46875,-2.488281 1.46875,-4.3125 0,-1.707031 -0.464844,-3.132813 -1.390625,-4.28125 -1,-1.226563 -2.371094,-1.84375 -4.109375,-1.84375 -1.6875,0 -3.03125,0.625 -4.03125,1.875 -0.929687,1.15625 -1.390625,2.617187 -1.390625,4.375 z m 0,0"
                   id="path43"
                   style="fill:#ffffff" />
              </g>
            </g>
          </g>
        </g>
        <g
           id="g1"
           transform="translate(-112.97829,10.058956)"
           style="fill:#ffffff">
          <g
             fill="#89abe3"
             fill-opacity="1"
             id="g49"
             style="fill:#ffffff">
            <g
               transform="translate(185.20022,265.99952)"
               id="g48"
               style="fill:#ffffff">
              <g
                 id="g47"
                 style="fill:#ffffff">
                <path
                   d="M 8.8125,0.078125 C 8.382812,0.0234375 7.273438,0 5.484375,0 h -0.4375 V -14.953125 H 2.375 c -0.804688,0 -1.277344,0.04297 -1.421875,0.125 C 0.816406,-14.753906 0.707031,-14.6875 0.625,-14.625 l -0.046875,-0.01563 v -3.45312 L 0.625,-18.140625 c 0.289062,0.105469 1.09375,0.15625 2.40625,0.15625 h 8.484375 c 0.789063,0 1.257813,-0.03906 1.40625,-0.125 0.144531,-0.08203 0.253906,-0.15625 0.328125,-0.21875 l 0.04687,0.01563 v 3.453125 L 13.25,-14.8125 c -0.292969,-0.09375 -1.09375,-0.140625 -2.40625,-0.140625 H 8.8125 Z m 0,0"
                   id="path46"
                   style="fill:#ffffff" />
              </g>
            </g>
          </g>
          <g
             fill="#89abe3"
             fill-opacity="1"
             id="g52"
             style="fill:#ffffff">
            <g
               transform="translate(200.95654,265.99952)"
               id="g51"
               style="fill:#ffffff">
              <g
                 id="g50"
                 style="fill:#ffffff">
                <path
                   d="m 2.75,-18.046875 c 0.894531,0.04297 1.4375,0.0625 1.625,0.0625 h 0.984375 c 0.476563,0 0.859375,-0.03516 1.140625,-0.109375 V 0 H 2.75 Z m 0,0"
                   id="path49"
                   style="fill:#ffffff" />
              </g>
            </g>
          </g>
          <g
             fill="#89abe3"
             fill-opacity="1"
             id="g55"
             style="fill:#ffffff">
            <g
               transform="translate(212.08861,265.99952)"
               id="g54"
               style="fill:#ffffff">
              <g
                 id="g53"
                 style="fill:#ffffff">
                <path
                   d="m 10.390625,-18.328125 c 1.6875,0 3.125,0.292969 4.3125,0.875 v 4.140625 l -0.03125,0.03125 c -0.5,-0.78125 -1.5625,-1.296875 -3.1875,-1.546875 -0.480469,-0.08203 -1.085937,-0.125 -1.8125,-0.125 -0.730469,0 -1.449219,0.140625 -2.15625,0.421875 -0.699219,0.273438 -1.273437,0.664062 -1.71875,1.171875 -0.875,0.980469 -1.3125,2.382813 -1.3125,4.203125 0,2.117188 0.550781,3.695312 1.65625,4.734375 0.914063,0.867187 2.132813,1.296875 3.65625,1.296875 1.707031,0 3.09375,-0.363281 4.15625,-1.09375 0.394531,-0.257812 0.726563,-0.582031 1,-0.96875 l 0.03125,0.015625 V -1.375 c -1.375,1.148438 -3.230469,1.71875 -5.5625,1.71875 -2.761719,0 -4.917969,-0.875 -6.46875,-2.625 -1.5,-1.664062 -2.25,-3.878906 -2.25,-6.640625 0,-2.90625 0.820313,-5.195313 2.46875,-6.875 1.65625,-1.6875 4.0625,-2.53125 7.21875,-2.53125 z m 0,0"
                   id="path52"
                   style="fill:#ffffff" />
              </g>
            </g>
          </g>
          <g
             fill="#89abe3"
             fill-opacity="1"
             id="g58"
             style="fill:#ffffff">
            <g
               transform="translate(230.03536,265.99952)"
               id="g57"
               style="fill:#ffffff">
              <g
                 id="g56"
                 style="fill:#ffffff">
                <path
                   d="M 5.78125,0.078125 C 5.15625,0.0234375 4.359375,0 3.390625,0 h -1.0625 v -18.046875 l 0.546875,0.03125 c 0.375,0.02344 0.65625,0.03125 0.84375,0.03125 h 0.390625 c 0.789063,0 1.347656,-0.03516 1.671875,-0.109375 v 7.640625 l 5.46875,-7.59375 c 0.582031,0.04297 1.070312,0.0625 1.46875,0.0625 h 0.734375 c 0.9375,0 1.601563,-0.03516 2,-0.109375 l -5.234375,6.8125 5.140625,10.203125 C 15.578125,-0.585938 15.78125,-0.226562 15.96875,0 h -0.8125 C 13.25,0 12.0625,0.0351562 11.59375,0.109375 11.488281,-0.492188 11.351562,-1.019531 11.1875,-1.46875 l -3.453125,-6.578125 -1.953125,2.5625 z m 0,0"
                   id="path55"
                   style="fill:#ffffff" />
              </g>
            </g>
          </g>
          <g
             fill="#89abe3"
             fill-opacity="1"
             id="g61"
             style="fill:#ffffff">
            <g
               transform="translate(248.04972,265.99952)"
               id="g60"
               style="fill:#ffffff">
              <g
                 id="g59"
                 style="fill:#ffffff">
                <path
                   d="m 11.375,-3.25 c 0.5625,0 0.953125,-0.050781 1.171875,-0.15625 L 12.59375,-3.390625 12.453125,0 h -10.125 v -18.078125 c 0.238281,0.01172 0.507813,0.02344 0.8125,0.03125 l 0.9375,0.03125 c 0.632813,0.02344 1.320313,0.03125 2.0625,0.03125 2.0625,0 4.101563,-0.03516 6.125,-0.109375 -0.09375,0.792969 -0.140625,1.851562 -0.140625,3.171875 0,0.148437 0.0039,0.257813 0.01563,0.328125 L 12.125,-14.5625 c -0.46875,-0.132812 -1.136719,-0.203125 -2,-0.203125 H 5.859375 V -11.3125 H 9.0625 c 0.988281,0 1.582031,-0.02344 1.78125,-0.07813 l 0.04687,3.34375 c -0.4375,-0.039063 -0.996094,-0.0625 -1.671875,-0.0625 H 5.859375 V -3.25 Z m 0,0"
                   id="path58"
                   style="fill:#ffffff" />
              </g>
            </g>
          </g>
          <g
             fill="#89abe3"
             fill-opacity="1"
             id="g64"
             style="fill:#ffffff">
            <g
               transform="translate(263.80603,265.99952)"
               id="g63"
               style="fill:#ffffff">
              <g
                 id="g62"
                 style="fill:#ffffff">
                <path
                   d="M 8.8125,0.078125 C 8.382812,0.0234375 7.273438,0 5.484375,0 h -0.4375 V -14.953125 H 2.375 c -0.804688,0 -1.277344,0.04297 -1.421875,0.125 C 0.816406,-14.753906 0.707031,-14.6875 0.625,-14.625 l -0.046875,-0.01563 v -3.45312 L 0.625,-18.140625 c 0.289062,0.105469 1.09375,0.15625 2.40625,0.15625 h 8.484375 c 0.789063,0 1.257813,-0.03906 1.40625,-0.125 0.144531,-0.08203 0.253906,-0.15625 0.328125,-0.21875 l 0.04687,0.01563 v 3.453125 L 13.25,-14.8125 c -0.292969,-0.09375 -1.09375,-0.140625 -2.40625,-0.140625 H 8.8125 Z m 0,0"
                   id="path61"
                   style="fill:#ffffff" />
              </g>
            </g>
          </g>
          <g
             fill="#89abe3"
             fill-opacity="1"
             id="g67"
             style="fill:#ffffff">
            <g
               transform="translate(279.56235,265.99952)"
               id="g66"
               style="fill:#ffffff">
              <g
                 id="g65"
                 style="fill:#ffffff">
                <path
                   d="m 13.1875,-16.984375 -0.25,3.96875 -0.09375,0.03125 c -0.667969,-1 -1.808594,-1.648437 -3.421875,-1.953125 -0.5,-0.09375 -0.984375,-0.140625 -1.453125,-0.140625 -0.460938,0 -0.855469,0.04297 -1.1875,0.125 -0.324219,0.07422 -0.605469,0.1875 -0.84375,0.34375 -0.5,0.324219 -0.75,0.746094 -0.75,1.265625 0,0.6875 0.21875,1.203125 0.65625,1.546875 0.539062,0.417969 1.4375,0.710937 2.6875,0.875 1.257812,0.167969 2.265625,0.398437 3.015625,0.6875 0.757813,0.28125 1.382813,0.648437 1.875,1.09375 0.914063,0.824219 1.375,1.996094 1.375,3.515625 0,1.980469 -0.75,3.507812 -2.25,4.578125 C 11.265625,-0.117188 9.648438,0.34375 7.703125,0.34375 6.140625,0.34375 4.59375,0.046875 3.0625,-0.546875 2.550781,-0.753906 2.109375,-0.988281 1.734375,-1.25 L 1.875,-5.765625 1.9375,-5.796875 c 1.113281,1.929687 2.945312,2.890625 5.5,2.890625 1.8125,0 3.007812,-0.4375 3.59375,-1.3125 0.195312,-0.300781 0.296875,-0.632812 0.296875,-1 0,-0.363281 -0.05859,-0.664062 -0.171875,-0.90625 C 11.039062,-6.363281 10.847656,-6.566406 10.578125,-6.734375 10.054688,-7.078125 9.175781,-7.304688 7.9375,-7.421875 6.707031,-7.546875 5.695312,-7.769531 4.90625,-8.09375 4.125,-8.414062 3.5,-8.816406 3.03125,-9.296875 c -0.84375,-0.863281 -1.265625,-2.070313 -1.265625,-3.625 0,-1.601563 0.5625,-2.898437 1.6875,-3.890625 1.144531,-1.007812 2.6875,-1.515625 4.625,-1.515625 1.945313,0 3.648437,0.449219 5.109375,1.34375 z m 0,0"
                   id="path64"
                   style="fill:#ffffff" />
              </g>
            </g>
          </g>
        </g>
      </g>
    </g>
  </g>
</svg>
